<svg id="Layer_1" data-name="Layer 1" xmlns="http://www.w3.org/2000/svg" viewBox="0 0 63.99 64"><defs><style>.cls-1{fill:#75b032;}</style></defs><path class="cls-1" d="M47.93,3.87H16.11A12.24,12.24,0,0,0,3.87,16.11V47.93A12.24,12.24,0,0,0,16.11,60.16H47.93A12.23,12.23,0,0,0,60.15,47.93V16.11A12.23,12.23,0,0,0,47.93,3.87Zm-3.78,8.69a3.87,3.87,0,1,1-3.86,3.87A3.88,3.88,0,0,1,44.15,12.56Zm-24.27,0A3.87,3.87,0,1,1,16,16.43,3.87,3.87,0,0,1,19.88,12.56ZM50.55,36.24c-1,3.89-4.49,12.58-15.92,16.4a8.21,8.21,0,0,1-5.23,0C18,48.82,14.52,40.13,13.48,36.24a10.92,10.92,0,0,1,.15-6.18C16.31,22,26.13,29,30.21,32.34a2.81,2.81,0,0,0,3.6,0C37.9,29,47.72,22,50.39,30.06A10.92,10.92,0,0,1,50.55,36.24Z"/></svg>