<svg id="Layer_1" data-name="Layer 1" xmlns="http://www.w3.org/2000/svg" viewBox="0 0 788 187.86"><defs><style>.cls-1{fill:#0d0a0b;}</style></defs><path class="cls-1" d="M266.83,151a35.54,35.54,0,0,1-15.22-11.85,31.15,31.15,0,0,1-5.76-18.27h24.69a15.9,15.9,0,0,0,5,11.19c3,2.74,7.16,4.11,12.42,4.11s9.61-1.29,12.68-3.86a12.6,12.6,0,0,0,4.61-10.13,11.7,11.7,0,0,0-3.13-8.39,22,22,0,0,0-7.82-5.19,129.3,129.3,0,0,0-12.92-4.19A138.41,138.41,0,0,1,263.21,98a31.87,31.87,0,0,1-12-9.71q-5-6.49-5-17.36a31.09,31.09,0,0,1,5.11-17.78A32.47,32.47,0,0,1,265.6,41.5a52.07,52.07,0,0,1,21.07-4q17.77,0,28.88,8.65t12.27,24.11H302.47a13.15,13.15,0,0,0-5-9.79q-4.69-3.87-12.43-3.87-6.75,0-10.78,3.45t-4,10a10.38,10.38,0,0,0,3,7.66,23.16,23.16,0,0,0,7.57,4.94q4.53,1.89,12.76,4.36a135.59,135.59,0,0,1,18.27,6.58A32.84,32.84,0,0,1,324,103.47q5.1,6.59,5.1,17.28a32.53,32.53,0,0,1-4.77,17.12,33.71,33.71,0,0,1-14,12.59q-9.22,4.69-21.89,4.69A54.66,54.66,0,0,1,266.83,151Z"/><path class="cls-1" d="M350.61,48.08a12.8,12.8,0,0,1-4-9.63,12.8,12.8,0,0,1,4-9.63,15.18,15.18,0,0,1,20.25,0,12.83,12.83,0,0,1,4,9.63,12.83,12.83,0,0,1-4,9.63,15.18,15.18,0,0,1-20.25,0Zm21.48,14.73V154h-23V62.81Z"/><path class="cls-1" d="M471.67,71.78q10.05,10.29,10,28.73V154h-23V103.63q0-10.86-5.43-16.7t-14.82-5.85q-9.54,0-15.06,5.85t-5.51,16.7V154h-23V62.81h23V74.17a31.77,31.77,0,0,1,11.77-9.3,36.38,36.38,0,0,1,15.72-3.37Q461.63,61.5,471.67,71.78Z"/><path class="cls-1" d="M503.19,83.55a40.52,40.52,0,0,1,15-16.46,39.88,39.88,0,0,1,21.15-5.76,37.06,37.06,0,0,1,17.86,4.12,36.19,36.19,0,0,1,12.26,10.37v-13h23.21V154H569.44V140.67a34.17,34.17,0,0,1-12.26,10.61,37.49,37.49,0,0,1-18,4.2,38.74,38.74,0,0,1-21-5.92,41.49,41.49,0,0,1-15-16.71,53.72,53.72,0,0,1-5.51-24.77A52.88,52.88,0,0,1,503.19,83.55Zm63,10.45a23.2,23.2,0,0,0-8.89-9.21,23.73,23.73,0,0,0-12-3.21,23.12,23.12,0,0,0-20.66,12.26,28.62,28.62,0,0,0-3.37,14.24,29.55,29.55,0,0,0,3.37,14.4,24.26,24.26,0,0,0,8.89,9.46,22.53,22.53,0,0,0,11.77,3.3,23.73,23.73,0,0,0,12-3.21,23.17,23.17,0,0,0,8.89-9.22,29.52,29.52,0,0,0,3.29-14.4A29.53,29.53,0,0,0,566.15,94Z"/><path class="cls-1" d="M615.12,151.28a13.51,13.51,0,0,1,0-19.25,14.24,14.24,0,0,1,10.29-3.87,13.74,13.74,0,0,1,10,3.87,13.68,13.68,0,0,1,0,19.25,13.74,13.74,0,0,1-10,3.87A14.24,14.24,0,0,1,615.12,151.28Z"/><path class="cls-1" d="M681,32.2V154H658V32.2Z"/><path class="cls-1" d="M757.74,154,726.8,115.16V154h-23V32.2h23v69.29l30.61-38.68h30l-40.16,45.76L787.7,154Z"/><path class="cls-1" d="M162.08,17.94A17.92,17.92,0,1,1,144.15,0,17.93,17.93,0,0,1,162.08,17.94Z"/><path class="cls-1" d="M49.48,17.94A17.92,17.92,0,1,1,31.58,0,17.91,17.91,0,0,1,49.48,17.94Z"/><path class="cls-1" d="M173.8,109.78C169,127.84,153,168.14,100,185.89a38.18,38.18,0,0,1-24.25,0c-53-17.74-69-58-73.8-76.1a50.16,50.16,0,0,1,.7-28.62c12.41-37.42,58-5,76.88,10.58a13.06,13.06,0,0,0,16.69,0c19-15.6,64.5-48,76.88-10.58A50.16,50.16,0,0,1,173.8,109.78Z"/></svg>